# Blender v2.67 (sub 0) OBJ File: ''
# www.blender.org
mtllib star.mtl
o Sphere
v -0.382683 0.923880 0.000000
v -0.707107 0.707107 0.000000
v -0.923880 0.382683 0.000000
v -1.000000 -0.000000 0.000000
v -0.923880 -0.382684 0.000000
v -0.707107 -0.707107 0.000000
v -0.382683 -0.923880 0.000000
v -0.270598 0.923880 -0.270598
v -0.500000 0.707107 -0.500000
v -0.653282 0.382683 -0.653281
v -0.707107 -0.000000 -0.707107
v -0.653282 -0.382684 -0.653281
v -0.500000 -0.707107 -0.500000
v -0.270598 -0.923880 -0.270598
v -0.000000 0.923880 -0.382683
v -0.000000 0.707107 -0.707107
v -0.000000 0.382683 -0.923879
v -0.000000 -0.000000 -1.000000
v -0.000000 -0.382684 -0.923879
v -0.000000 -0.707107 -0.707107
v -0.000000 -0.923880 -0.382683
v -0.000000 1.000000 0.000000
v 0.270598 0.923880 -0.270598
v 0.500000 0.707107 -0.500000
v 0.653281 0.382683 -0.653281
v 0.707107 -0.000000 -0.707107
v 0.653281 -0.382684 -0.653281
v 0.500000 -0.707107 -0.500000
v 0.270598 -0.923880 -0.270598
v 0.382683 0.923880 0.000000
v 0.707106 0.707107 0.000000
v 0.923879 0.382683 0.000000
v 1.000000 -0.000000 0.000000
v 0.923879 -0.382684 0.000000
v 0.707106 -0.707107 0.000000
v 0.382683 -0.923880 0.000000
v 0.270598 0.923880 0.270598
v 0.500000 0.707107 0.500000
v 0.653281 0.382683 0.653282
v 0.707106 -0.000000 0.707107
v 0.653281 -0.382684 0.653282
v 0.500000 -0.707107 0.500000
v 0.270598 -0.923880 0.270598
v -0.000000 -1.000000 0.000000
v -0.000000 0.923880 0.382683
v -0.000000 0.707107 0.707107
v -0.000000 0.382683 0.923880
v -0.000000 -0.000000 1.000000
v -0.000000 -0.382684 0.923880
v -0.000000 -0.707107 0.707107
v -0.000000 -0.923880 0.382683
v -0.270598 0.923880 0.270598
v -0.500000 0.707107 0.500000
v -0.653282 0.382683 0.653281
v -0.707107 -0.000000 0.707107
v -0.653282 -0.382684 0.653281
v -0.500000 -0.707107 0.500000
v -0.270598 -0.923880 0.270598
vt 0.000000 0.000000
vt 1.000000 0.000000
vt 0.000000 1.000000
vt 1.000000 1.000000
vn -0.786151 -0.525289 -0.325634
vn -0.541419 0.810291 -0.224263
vn -0.908663 -0.180744 -0.376381
vn -0.908663 0.180744 -0.376381
vn -0.541419 -0.810291 -0.224263
vn -0.786151 0.525289 -0.325634
vn -0.376381 -0.180744 -0.908663
vn -0.376381 0.180744 -0.908663
vn -0.224263 -0.810291 -0.541419
vn -0.325634 0.525289 -0.786151
vn -0.325634 -0.525289 -0.786151
vn -0.224263 0.810291 -0.541419
vn 0.376381 -0.180744 -0.908663
vn 0.376381 0.180744 -0.908663
vn 0.224263 -0.810291 -0.541419
vn 0.325635 0.525289 -0.786151
vn 0.325634 -0.525289 -0.786151
vn 0.224263 0.810291 -0.541419
vn 0.908663 -0.180744 -0.376381
vn 0.908663 0.180744 -0.376381
vn 0.541419 -0.810291 -0.224263
vn 0.786151 0.525289 -0.325634
vn 0.786151 -0.525289 -0.325634
vn 0.541419 0.810291 -0.224263
vn 0.908663 -0.180744 0.376381
vn 0.908663 0.180744 0.376381
vn 0.541419 -0.810291 0.224263
vn 0.786151 0.525289 0.325635
vn 0.786151 -0.525290 0.325635
vn 0.541419 0.810291 0.224263
vn 0.376381 -0.180744 0.908663
vn 0.376381 0.180744 0.908663
vn 0.224263 -0.810291 0.541419
vn 0.325634 0.525289 0.786151
vn 0.325634 -0.525290 0.786151
vn 0.224263 0.810291 0.541419
vn -0.376381 -0.180744 0.908663
vn -0.376381 0.180744 0.908663
vn -0.224263 -0.810291 0.541419
vn -0.325634 0.525290 0.786151
vn -0.325635 -0.525290 0.786151
vn -0.224263 0.810291 0.541419
vn -0.194457 -0.977599 -0.080547
vn -0.194457 0.977599 -0.080547
vn -0.080547 -0.977599 -0.194457
vn -0.080547 0.977599 -0.194457
vn 0.080547 -0.977599 -0.194457
vn 0.080547 0.977599 -0.194456
vn 0.194457 -0.977599 -0.080547
vn 0.194457 0.977599 -0.080546
vn 0.194457 -0.977598 0.080547
vn 0.194457 0.977599 0.080547
vn 0.080546 -0.977599 0.194457
vn 0.080547 0.977599 0.194457
vn -0.080547 -0.977598 0.194457
vn -0.080547 0.977599 0.194457
vn -0.908664 -0.180744 0.376380
vn -0.194457 -0.977598 0.080546
vn -0.194457 0.977599 0.080547
vn -0.908663 0.180744 0.376380
vn -0.541419 -0.810291 0.224263
vn -0.786151 0.525290 0.325634
vn -0.786151 -0.525290 0.325634
vn -0.541419 0.810291 0.224263
vn 0.325634 0.525289 -0.786151
vn 0.325634 -0.525290 -0.786151
vn 0.786151 -0.525290 -0.325634
vn 0.786151 0.525289 0.325634
vn 0.786151 -0.525290 0.325634
vn 0.325634 0.525290 0.786151
vn -0.325635 0.525290 0.786151
vn -0.325634 -0.525290 0.786151
vn -0.908663 -0.180744 0.376380
vn -0.908664 0.180744 0.376380
vn -0.786151 0.525289 0.325634
vn -0.786151 -0.525289 0.325634
usemtl None
s off
f 6/1/1 5/2/1 13/3/1
f 2/1/2 1/2/2 9/3/2
f 5/1/3 4/2/3 12/3/3
f 4/1/4 3/2/4 11/3/4
f 7/1/5 6/2/5 14/3/5
f 3/1/6 2/2/6 10/3/6
f 12/1/7 11/2/7 19/3/7
f 11/1/8 10/2/8 18/3/8
f 14/1/9 13/2/9 21/3/9
f 10/1/10 9/2/10 17/3/10
f 13/1/11 12/2/11 20/3/11
f 9/1/12 8/2/12 16/3/12
f 19/1/13 18/2/13 26/4/13
f 18/1/14 17/2/14 25/4/14
f 21/1/15 20/2/15 28/4/15
f 17/1/16 16/2/16 24/4/16
f 20/1/17 19/2/17 27/4/17
f 16/1/18 15/2/18 23/4/18
f 27/1/19 26/2/19 33/4/19
f 26/1/20 25/2/20 32/4/20
f 29/1/21 28/2/21 35/4/21
f 25/1/22 24/2/22 31/4/22
f 28/1/23 27/2/23 34/4/23
f 24/1/24 23/2/24 30/4/24
f 34/1/25 33/2/25 40/4/25
f 33/1/26 32/2/26 39/4/26
f 36/1/27 35/2/27 42/4/27
f 32/1/28 31/2/28 38/4/28
f 35/1/29 34/2/29 41/4/29
f 31/1/30 30/2/30 37/4/30
f 41/1/31 40/2/31 48/4/31
f 40/1/32 39/2/32 47/4/32
f 43/1/33 42/2/33 50/4/33
f 39/1/34 38/2/34 46/4/34
f 42/1/35 41/2/35 49/4/35
f 38/1/36 37/2/36 45/4/36
f 49/1/37 48/2/37 56/3/37
f 48/1/38 47/2/38 55/3/38
f 51/1/39 50/2/39 58/3/39
f 47/1/40 46/2/40 54/3/40
f 50/1/41 49/2/41 57/3/41
f 46/1/42 45/2/42 53/3/42
f 44/1/43 7/2/43 14/4/43
f 1/1/44 22/2/44 8/4/44
f 44/1/45 14/2/45 21/4/45
f 8/1/46 22/2/46 15/4/46
f 44/1/47 21/2/47 29/4/47
f 15/1/48 22/2/48 23/4/48
f 44/1/49 29/2/49 36/4/49
f 23/1/50 22/2/50 30/4/50
f 44/1/51 36/2/51 43/4/51
f 30/1/52 22/2/52 37/4/52
f 44/1/53 43/2/53 51/4/53
f 37/1/54 22/2/54 45/4/54
f 44/1/55 51/2/55 58/4/55
f 45/1/56 22/2/56 52/4/56
f 56/1/57 55/2/57 5/3/57
f 44/1/58 58/2/58 7/4/58
f 52/1/59 22/2/59 1/4/59
f 55/1/60 54/2/60 4/3/60
f 58/1/61 57/2/61 7/3/61
f 54/1/62 53/2/62 3/3/62
f 57/1/63 56/2/63 6/3/63
f 53/1/64 52/2/64 2/3/64
f 5/2/1 12/4/1 13/3/1
f 1/2/2 8/4/2 9/3/2
f 4/2/3 11/4/3 12/3/3
f 3/2/4 10/4/4 11/3/4
f 6/2/5 13/4/5 14/3/5
f 2/2/6 9/4/6 10/3/6
f 11/2/7 18/4/7 19/3/7
f 10/2/8 17/4/8 18/3/8
f 13/2/9 20/4/9 21/3/9
f 9/2/10 16/4/10 17/3/10
f 12/2/11 19/4/11 20/3/11
f 8/2/12 15/4/12 16/3/12
f 27/3/13 19/1/13 26/4/13
f 26/3/14 18/1/14 25/4/14
f 29/3/15 21/1/15 28/4/15
f 25/3/65 17/1/65 24/4/65
f 28/3/66 20/1/66 27/4/66
f 24/3/18 16/1/18 23/4/18
f 34/3/19 27/1/19 33/4/19
f 33/3/20 26/1/20 32/4/20
f 36/3/21 29/1/21 35/4/21
f 32/3/22 25/1/22 31/4/22
f 35/3/67 28/1/67 34/4/67
f 31/3/24 24/1/24 30/4/24
f 41/3/25 34/1/25 40/4/25
f 40/3/26 33/1/26 39/4/26
f 43/3/27 36/1/27 42/4/27
f 39/3/68 32/1/68 38/4/68
f 42/3/69 35/1/69 41/4/69
f 38/3/30 31/1/30 37/4/30
f 49/3/31 41/1/31 48/4/31
f 48/3/32 40/1/32 47/4/32
f 51/3/33 43/1/33 50/4/33
f 47/3/70 39/1/70 46/4/70
f 50/3/35 42/1/35 49/4/35
f 46/3/36 38/1/36 45/4/36
f 48/2/37 55/4/37 56/3/37
f 47/2/38 54/4/38 55/3/38
f 50/2/39 57/4/39 58/3/39
f 46/2/71 53/4/71 54/3/71
f 49/2/72 56/4/72 57/3/72
f 45/2/42 52/4/42 53/3/42
f 55/2/73 4/4/73 5/3/73
f 54/2/74 3/4/74 4/3/74
f 57/2/61 6/4/61 7/3/61
f 53/2/75 2/4/75 3/3/75
f 56/2/76 5/4/76 6/3/76
f 52/2/64 1/4/64 2/3/64
